<svg clip-rule="evenodd" fill-rule="evenodd" stroke-linejoin="round" stroke-miterlimit="2" viewBox="0 0 80 80" xmlns="http://www.w3.org/2000/svg"><g fill-rule="nonzero" transform="matrix(.989574 0 0 .991402 -8.19491 -10.5575)"><path d="m89.1 17.7c-.1-.6-.6-1.1-1.2-1.2-.2 0-.3-.1-.5-.1-.6-.1-1.1-.3-1.7-.3-1.9-.2-3.7-.3-5.3-.3-3.3 0-6.8.2-10.3.6-2 .2-4 .5-5.9.8h-.2c-2.7.4-5.4 1-8 1.6-.6.2-1.2.3-1.8.5-1.4.4-2.8.7-4.2 1.1-.3.1-.6.1-.8 0-1.1-.4-2.1-.9-3-1.5-1.3-1-2.3-2.3-3-4l-.1-.1c-.1-.2-.2-.5-.4-.7-.4-.6-1.2-.9-1.8-.5-.4.2-.6.5-.7.9-.2-.7-.4-1.5-.8-2.2 0-.6-.2-1.3-1.3-1.6-.8-.2-1.5.2-1.8 1-.2.6 0 1 .2 1.4l.1.1c.2.4.4.8.5 1.2.3 1.3.6 2.6.8 3.7.1.4.1.8.2 1.1h-.2c-.4.1-.8.2-1.2.3-1.8.6-3.3 1.5-4.6 2.4-2.6 1.7-5.2 3.7-8 6.3-6.6 6.2-11.5 13.5-14.4 21.5-.7 1.5-1.3 3.3-1.4 5.3-.1 1.8.2 3.6.9 5.3.2.5.6.9 1.1 1h.3c.4 0 .8-.2 1.2-.5.3-.3.5-.4.7-.6.7-.4 1.3-.7 1.9-1 1.4-.7 2.9-1.2 4.4-1.7-.1 0-.1.1-.2.1-.3.3-.4.7-.4 1.1s.2.8.6 1.1c.1.1.1.2.2.3.3 1 .5 2 .6 3.1.1 1-.1 1.8-.6 2.5-.2.3-.4.6-.6.8l-.1.2c-.4.5-.4 1-.3 1.3s.3.7.8 1c0 0 .2.1.2.2l.3.3c1.4 1.6 2.8 3.3 3.9 5.2 1.1 2 1.9 3.5 2.5 5 .8 2.1 1.5 4.4 2 6.9 0 .2 0 .3-.1.4l-1.4 1.4c-.2.2-.4.4-.5.6-.4.5-.3 1.3.1 1.8.3.4.7.5 1.1.5.2 0 .4 0 .6-.1s.4-.2.6-.3c5.5-3.6 11.4-6.7 17.6-9 1.4-.5 2.8-1 4.2-1.4.6-.2 1.2-.4 1.9-.6 1-.4 1.5-1.1 1.3-2.1-.2-1.2-.1-2.5.3-3.9.7-2.2 1.8-4.2 2.6-5.7 3.7-6.5 8.2-12.7 13.5-18.3 1.5-1.6 2.9-3 4.4-4.3-.9 1.7-1.8 3.4-2.8 5-.4.7-.8 1.4-1.2 2.1-2.1 3.7-3.6 7.1-4.6 10.6-.9 2.8-1.5 5.6-1.9 7.7-.1.3-.1.5-.2.8-.1.5-.2.9-.3 1.4-.1.6.1 1.1.5 1.5s.9.5 1.4.3c.9-.2 1.1-1.1 1.2-1.4.1-.6.2-1.2.4-1.8.1-.7.3-1.4.4-2.1 1.1-5.5 3.1-10.7 5.8-15.5 1.8-3.2 4.1-7.1 5.9-11.1.2-.5.4-1 .5-1.4.2-.7 0-1.4-.6-1.9s-1.3-.5-2-.1c-.4.3-.9.5-1.2.8-3.1 2.3-6.1 5.1-9.1 8.4-4.8 5.3-9 11.1-12.4 17-.9 1.6-2.1 3.8-3 6.2-.3.9-.7 2-.8 3.2 0 .5-.1 1-.1 1.6v.4c-3.5 1.1-6.8 2.4-10 3.7-3.2 1.4-6.2 2.9-9.3 4.8-1.4-7.2-4.4-13.2-9.1-18.3.1-.1.1-.1.1-.2.7-1 1-2.1 1.1-3.2 0-2-.4-3.9-1.4-5.9-.1-.2-.3-.5-.5-.6-.3-.2-.6-.4-1-.4.5-.1.9-.3 1.3-.4 2.7-.8 5.6-1.5 9-2.1 1.9-.4 4-.7 6.1-.9 1.4-.2 2.9-.2 4.3-.3.5 0 1.1 0 1.6-.1h2.5c1-.1 2-.5 2.7-1.4.4-.5.9-.9 1.3-1.2.6-.4 1.1-.8 1.7-1.2 1.1-.8 2.3-1.7 3.4-2.5 3.9-3 7.7-5.2 11.5-6.8 1.1-.5 2.3-1 3.4-1.4l.5-.2c.5-.2.9-.6 1-1 .1-.5 0-.9-.3-1.4-.2-.2-.4-.5-.7-.7-.4-.3-.8-.5-1.2-.7-2.4-1.1-5-2.2-7.9-3.1-1.5-.5-3.2-.9-4.9-1.1-.6-.1-1.1-.1-1.7-.1s-1.1.5-1.2 1.1.2 1.2.7 1.5c.2.1.3.1.6.2s.6.1.9.2c.4.1.8.2 1.3.2 3 .6 6 1.6 9.4 3.1-4.2 1.8-8.1 4-11.7 6.6-1.7 1.2-3.4 2.5-5.1 3.7l-1.5 1.1c-.5.4-1.2.9-1.8 1.6-.2.3-.5.4-.8.4-1.4 0-2.8.1-4.3.1-2.2.1-4.2.2-6 .5-2.1.3-4.3.7-6.7 1.2-3.5.7-6.8 1.6-10 2.7-2.2.7-4 1.5-5.8 2.4-.2-1.4-.1-2.9.3-4.4 1.3-4.4 3.2-8.5 5.7-12.3 2.5-3.9 5.8-7.7 9.5-11.1 2.6-2.3 4.9-4.1 7.2-5.5 1.3-.8 2.4-1.3 3.5-1.7.5-.2.8-.2 1.1 0 .7.4 1.5.2 2-.5.3-.5.4-.9.4-1.3 0-1.1-.1-2.2-.4-3.6v-.1c0-.1 0-.2-.1-.3.8 1.9 1.7 3.3 3 4.3 1.3 1.1 2.7 1.9 4.4 2.5.8.3 1.5.3 2.1.1.3-.1.6-.1.9-.2.5-.1 1-.2 1.5-.4 5.2-1.4 9.5-2.3 13.5-2.9 3-.4 5.6-.7 8.1-.9s5.1-.3 7.5-.2c.7 0 1.5.1 2.2.1-.5.4-.9.8-1.4 1.2-2.2 2-4.1 4.3-6.3 6.8-1.5 1.8-2.8 3.8-3.8 5.9-.6 1.3-1.2 2.6-1.8 4-.1.3-.2.7-.2 1.1 0 .8.6 1.4 1.3 1.5h.2c.6 0 1.1-.4 1.4-1.1l.2-.6c.3-.7.6-1.5.9-2.2.8-1.8 1.9-3.9 3.4-5.8 1.7-2.1 3.6-4.2 5.5-6.2 1.6-1.7 3.2-3 4.9-4 .1-.1.2-.2.3-.3.7-.3.9-.8.8-1.4z"/><path d="m34.9 65.2c-1.2.4-2.3.7-3.3.9-.4.1-.6 0-.9-.1s-.7-.2-1-.3c-.6-.2-1.3.1-1.6.7s-.2 1.3.3 1.7c.9.7 1.8 1.1 2.7 1.1h.4c.8-.1 1.7-.3 2.7-.5 3.2-.9 6.5-2.2 10.5-4.2 2.3-1.2 4.3-2.5 6-4s2.9-3 3.8-4.7c.1-.3.3-.6.3-1.1.1-.8-.5-1.5-1.4-1.6h-.5c-.5 0-1.1.1-1.6.1-1.3.1-2.6.1-3.9.2-1.8.1-3.3.3-4.7.5-1.9.3-4 .7-6.2 1.1-3.7.8-7.3 1.9-10.8 3.5l-.2.1c-.5.2-.9.4-1.3.4-.6.1-1.1.5-1.2 1.2-.1.6.1 1.1.7 1.4.4.3.9.4 1.4.2.4-.1.7-.2 1.2-.4.7-.2 1.4-.5 2-.7 1.3-.5 2.7-1 4-1.4.4-.1.8-.2 1.1-.3h.1c.4.6.8.7 1.8.6h.2c.4.1.8.5 1.1.8 1 .9 1.8 2 2.5 3.2v.1c-.4.1-.7.3-1.1.4-.8.3-2 .7-3.1 1.1zm3.5-7.4c4.1-.8 8-1.3 11.9-1.5-.7.9-1.6 1.8-2.7 2.7-1.5 1.2-3.7 2.5-5.5 3.3-1-1.6-2.1-3.2-3.7-4.5z"/><path d="m10.8 29.5h.2c.5 0 1.1-.2 1.4-.7.3-.4.3-.9.1-1.4-.1-.1 0-.2 0-.3.6-1.1 1.2-2.2 1.9-3.2-.1.2-.2.4-.2.5v.3c0 .5.2 1 .5 1.4s.8.5 1.2.5c.2 0 .4 0 .6-.1.6-.3.9-.8.9-1.5 0 0 0-.1.1-.1l1.6-1.6c.2-.2.4-.3.7-.4.6-.3 1-.9.9-1.5s-.6-1.1-1.3-1.2c-.5 0-.9.1-1.4.4-.8.5-1.5 1.1-2.1 1.7.1-.1.2-.3.3-.4 1.4-1.6 3.1-3.1 5.1-4.6.4-.3.8-.6 1.3-.6.8-.1 1.3-.7 1.2-1.5-.1-.6-.5-1.1-1.2-1.3l-.1-.2-.5.1c-.1 0-.2 0-.3.1-.2 0-.5.1-.8.2-.7.3-1.2.6-1.7.9-2.8 1.8-5.2 4.1-7.2 6.9-.8 1.1-1.8 2.6-2.5 4.2-.2.4-.3.9-.4 1.2-.1.5 0 1 .3 1.4.5.5.9.7 1.4.8z"/><path d="m80.3 65.9c0-.3-.1-.6-.2-.9-.2-.7-.9-1.1-1.6-1s-1.2.7-1.1 1.4v.4c.1.4 0 .9-.1 1.3-.6 1.7-1.5 3.2-2.8 4.5-.2.2-.4.4-.6.4-.6.1-1 .6-1.1 1.3-.1.6.2 1.1.8 1.4.3.2.6.3.9.3s.6-.1.9-.2c.5-.3 1-.6 1.3-1 1.2-1.2 2.2-2.6 3-4.4.5-1 .7-2 .8-3v-.2c-.2-.1-.2-.2-.2-.3z"/><path d="m74.2 70.5c.5-.8.9-1.8 1.5-2.9.1-.3.2-.6.2-.8 0-.1 0-.2.1-.3v-.4c0-.1 0-.3-.1-.4-.2-.7-.9-1.2-1.6-1.1s-1.2.6-1.3 1.4c0 .3-.1.5-.2.7-.2.4-.5.9-.7 1.3-.3.5-.6 1.1-1.1 1.5-.1.1-.3.3-.4.5-.3.5-.3 1 0 1.4s.7.7 1.3.7c.5 0 1-.2 1.4-.6.3-.3.7-.6.9-1z"/></g></svg>